<?xml version="1.0" standalone="no"?>
<!DOCTYPE svg PUBLIC "-//W3C//DTD SVG 20010904//EN"
 "http://www.w3.org/TR/2001/REC-SVG-20010904/DTD/svg10.dtd">
<svg version="1.0" xmlns="http://www.w3.org/2000/svg"
 width="920.000000pt" height="920.000000pt" viewBox="0 0 920.000000 920.000000"
 preserveAspectRatio="xMidYMid meet">
<metadata>
Created by potrace 1.16, written by Peter Selinger 2001-2019
</metadata>
<g transform="translate(0.000000,920.000000) scale(0.100000,-0.100000)"
fill="#000000" stroke="none">
<path d="M4186 8161 l-409 -458 -101 32 c-55 18 -321 103 -589 190 -269 86
-492 153 -496 149 -4 -5 -66 -271 -137 -592 -71 -321 -132 -588 -135 -594 -4
-6 -274 -70 -600 -143 -326 -72 -594 -136 -596 -141 -2 -5 80 -268 182 -583
101 -315 186 -579 187 -587 2 -7 -202 -196 -452 -420 -250 -224 -455 -410
-455 -414 0 -4 205 -190 455 -414 293 -263 454 -413 452 -423 -2 -9 -55 -176
-119 -372 -232 -719 -255 -793 -247 -800 5 -4 272 -66 593 -137 322 -71 589
-134 595 -140 6 -6 69 -273 140 -595 71 -321 133 -588 137 -593 4 -5 107 24
231 64 321 103 942 302 949 304 3 0 75 -75 159 -169 164 -182 186 -207 475
-530 103 -116 191 -210 194 -210 4 0 90 92 191 205 389 433 527 587 579 646
l53 61 77 -24 c42 -13 207 -66 366 -118 651 -210 737 -237 744 -229 4 5 66
271 137 592 71 321 132 588 135 594 4 6 267 69 585 139 319 71 589 131 600
134 l21 5 -23 67 c-13 38 -66 203 -119 368 -86 267 -172 532 -225 696 -18 56
-18 56 4 75 101 86 891 799 891 803 0 7 -87 86 -617 560 l-295 264 39 121 c21
67 107 332 189 589 83 258 148 471 144 475 -4 4 -272 66 -597 138 -390 86
-593 136 -598 145 -4 8 -65 275 -135 594 -71 319 -131 584 -136 589 -4 4 -105
-23 -226 -62 -120 -39 -379 -122 -577 -186 -197 -64 -364 -117 -371 -118 -8
-2 -62 51 -121 117 -59 66 -139 155 -177 198 -38 42 -82 91 -96 107 -185 209
-437 489 -441 489 -3 0 -189 -206 -414 -458z m-321 -1670 c276 -70 468 -273
526 -556 18 -88 20 -125 16 -315 -5 -238 -15 -294 -71 -413 -67 -145 -168
-249 -316 -326 -107 -56 -204 -81 -340 -88 -426 -21 -733 226 -796 641 -22
143 -14 429 15 540 32 120 84 216 163 301 115 123 252 197 425 230 101 19 271
13 378 -14z m1665 -393 c88 -51 160 -96 160 -100 0 -6 -1836 -2965 -1850
-2981 -8 -9 -329 172 -330 185 0 4 107 179 238 390 242 388 491 788 957 1538
518 833 660 1060 663 1060 2 0 75 -42 162 -92z m220 -1708 c247 -51 434 -212
525 -453 70 -188 75 -567 8 -767 -37 -113 -77 -176 -172 -270 -98 -97 -196
-153 -336 -191 -113 -31 -325 -31 -440 -1 -210 57 -372 185 -459 363 -67 139
-77 191 -83 428 -7 285 16 409 106 560 160 269 503 403 851 331z"/>
<path d="M3545 6136 c-118 -37 -205 -139 -234 -274 -15 -74 -14 -353 3 -423
25 -106 91 -189 185 -233 38 -17 65 -21 151 -21 94 1 110 3 156 27 75 39 130
107 156 191 29 97 31 388 3 485 -23 81 -80 169 -132 205 -78 54 -197 72 -288
43z"/>
<path d="M5445 4007 c-107 -36 -173 -102 -206 -206 -17 -57 -20 -92 -21 -251
0 -157 3 -195 20 -247 55 -174 176 -263 343 -251 121 9 216 73 273 185 39 78
48 152 44 344 -5 200 -19 253 -89 332 -60 69 -133 100 -238 104 -52 2 -102 -2
-126 -10z"/>
</g>
</svg>
